<?xml version="1.0" encoding="utf-8"?>
<!-- Generator: Adobe Illustrator 24.3.0, SVG Export Plug-In . SVG Version: 6.00 Build 0)  -->
<svg version="1.1" id="Layer_1" xmlns="http://www.w3.org/2000/svg" xmlns:xlink="http://www.w3.org/1999/xlink" x="0px" y="0px"
	 viewBox="0 0 200 200" style="enable-background:new 0 0 200 200;" xml:space="preserve">
<style type="text/css">
	.st0{fill-rule:evenodd;clip-rule:evenodd;fill:#BBC7E1;}
</style>
<g>
	<path class="st0" d="M24.9,100c0-28.6,0-57.2,0-85.8c0-4,1.6-7.1,5.1-9.1c1.6-0.9,3.3-1.3,5.2-1.3c17.2,0,34.3,0,51.5,0
		c13.9,0,27.9,0,41.8,0c1.1,0,1.9,0.4,2.7,1.1c14.3,14.3,28.7,28.7,43,43c0.8,0.8,1.1,1.6,1.1,2.7c0,44.9,0,89.9,0,134.8
		c0,3.4-1.1,6.3-3.8,8.5c-1.7,1.4-3.6,2-5.8,2.1c-0.2,0-0.5,0-0.7,0c-43.2,0-86.5,0-129.7,0c-5.1,0-9.1-3.2-10.1-8
		c-0.2-0.8-0.2-1.7-0.2-2.6C24.9,157,24.9,128.5,24.9,100z M125.8,9.8c-0.5,0-0.8,0-1.2,0c-29.7,0-59.4,0-89.1,0c-0.3,0-0.5,0-0.8,0
		c-1.9,0.1-3.3,1.3-3.8,3.1c-0.1,0.5-0.1,1-0.1,1.5c0,57.1,0,114.2,0,171.3c0,0.3,0,0.5,0,0.8c0.1,1.9,1.5,3.5,3.4,3.7
		c0.5,0.1,1.1,0.1,1.6,0.1c19.6,0,39.1,0,58.7,0c23.4,0,46.8,0,70.2,0c3,0,4.6-1.6,4.6-4.4c0-43.8,0-87.6,0-131.5c0-0.3,0-0.6,0-1
		c-0.5,0-0.8,0-1.2,0c-10.6,0-21.3,0-31.9,0c-0.7,0-1.4,0-2-0.1c-5-0.8-8.4-4.9-8.4-10c0-10.7,0-21.5,0-32.2
		C125.8,10.6,125.8,10.3,125.8,9.8z M164.8,47.4c-11.1-11.1-22.1-22.1-33.1-33.2c0,0.3,0,0.6,0,0.9c0,9.3,0,18.5,0,27.8
		c0,2.9,1.6,4.5,4.5,4.5c9.3,0,18.5,0,27.8,0C164.2,47.4,164.5,47.4,164.8,47.4z"/>
	<path class="st0" d="M99.9,81.3c-16.6,0-33.1,0-49.7,0c-2.3,0-3.7-1.1-3.7-3c0-1.8,1.4-2.9,3.7-2.9c33.2,0,66.5,0,99.7,0
		c2.4,0,3.9,1.6,3.4,3.7c-0.3,1.3-1.4,2.1-2.8,2.2c-0.6,0-1.2,0-1.8,0C132.5,81.3,116.2,81.3,99.9,81.3z"/>
	<path class="st0" d="M100,102.9c-16.7,0-33.3,0-50,0c-0.5,0-1,0-1.5-0.2c-1.3-0.4-2.2-1.8-2-3.1c0.2-1.5,1.3-2.5,2.8-2.6
		c0.5,0,1,0,1.5,0c32.9,0,65.9,0,98.8,0c0.6,0,1.1,0,1.7,0.1c1.3,0.3,2.2,1.7,2.1,3c-0.1,1.5-1.3,2.6-2.7,2.7c-0.4,0-0.7,0-1.1,0
		C133.1,102.9,116.6,102.9,100,102.9z"/>
	<path class="st0" d="M100,124.6c-16.7,0-33.4,0-50.1,0c-1.4,0-2.5-0.4-3.1-1.8c-0.8-1.8,0.4-3.9,2.4-4.1c0.2,0,0.4,0,0.6,0
		c33.4,0,66.8,0,100.3,0c1.8,0,2.9,0.8,3.3,2.4c0.4,1.7-0.8,3.3-2.5,3.5c-0.3,0-0.6,0-1,0C133.2,124.6,116.6,124.6,100,124.6
		C100,124.6,100,124.6,100,124.6z"/>
	<path class="st0" d="M100,140.4c16.6,0,33.1,0,49.7,0c0.6,0,1.2,0,1.8,0.2c1.3,0.4,2.1,1.7,2,3c-0.1,1.5-1.2,2.6-2.7,2.7
		c-0.3,0-0.5,0-0.8,0c-33.3,0-66.6,0-99.9,0c-0.5,0-1,0-1.5-0.2c-1.3-0.4-2.2-1.8-2-3.1c0.2-1.4,1.2-2.5,2.6-2.6c0.4,0,0.8,0,1.2,0
		C66.9,140.4,83.5,140.4,100,140.4z"/>
	<path class="st0" d="M100.1,162c16.7,0,33.4,0,50,0c1.8,0,2.9,0.8,3.2,2.4c0.3,1.6-0.8,3.3-2.5,3.5c-0.4,0-0.8,0-1.1,0
		c-33.1,0-66.1,0-99.2,0c-0.4,0-0.8,0-1.2,0c-1.6-0.1-2.8-1.3-2.8-2.9c0-1.6,1.2-2.9,2.8-3c0.3,0,0.6,0,1,0
		C66.9,162,83.5,162,100.1,162z"/>
	<path class="st0" d="M72.4,50c7.5,0,15,0,22.5,0c1.4,0,2.6,0.4,3.2,1.8c0.8,1.8-0.4,3.9-2.4,4.1c-0.2,0-0.5,0-0.7,0
		c-15,0-30,0-45,0c-1.7,0-2.8-0.7-3.2-2.1c-0.5-1.8,0.6-3.5,2.5-3.7c0.3,0,0.7,0,1.1,0C57.6,50,65,50,72.4,50z"/>
</g>
</svg>
