<?xml version="1.0" encoding="utf-8"?>
<!-- Generator: Adobe Illustrator 24.3.0, SVG Export Plug-In . SVG Version: 6.00 Build 0)  -->
<svg
    version="1.1"
    id="noimage_white"
    xmlns="http://www.w3.org/2000/svg"
    xmlns:xlink="http://www.w3.org/1999/xlink"
    viewBox="0 0 256 256"
    style="enable-background:new 0 0 256 256;"
    xml:space="preserve"
>
    <path
        fill="white"
        fill-rule="evenodd"
        clip-rule="evenodd"
        d="M222.4,163.9c0,3.2,0.1,5.7,0,8.1c-0.2,5.8-2.2,7.8-8,7.9c-4.5,0.1-9,0-13.5,0c-56.8,0-113.6,0-170.5,0
        c-9,0-10.5-1.5-10.5-10.4c0-45.3,0-90.6,0-136c0-9,1.5-10.4,10.4-10.5c6.7,0,6.7,0,6.8-6.7c0.1-7.5,2-9.4,9.6-9.4
        c61.2,0,122.3,0,183.5,0c7.5,0,9.5,1.9,9.5,9.5c0,46,0,92,0,138c0,7.6-1.9,9.4-9.4,9.5C228,163.9,225.6,163.9,222.4,163.9z
        M212.6,33.5c-61,0-121.7,0-182.8,0c0,45.5,0,90.6,0,135.9c61.1,0,122,0,182.8,0C212.6,123.9,212.6,78.8,212.6,33.5z M229.9,17.5
        c-61.2,0-121.9,0-183.1,0c0.1,1.9,0.2,3.5,0.3,5.6c2.4,0,4.3,0,6.3,0c52.8,0,105.6,0,158.4,0c9.2,0,10.6,1.4,10.6,10.8
        c0,37.8,0,75.6,0,113.4c0,2.1,0.2,4.2,0.3,6.2c2.7,0,4.8,0,7.1,0C229.9,108.1,229.9,63,229.9,17.5z"/>
    <path
        fill="white"
        fill-rule="evenodd"
        clip-rule="evenodd"
        d="M127.3,239c3-7.7,5.5-14.4,8.1-21.2c2.6-6.8,2.6-6.8,10.6-5.8c0,12,0,24,0,36.5c-2.5,0-5,0-8.1,0
        c0-5.4,0-10.6,0-15.9c-0.4-0.1-0.8-0.2-1.2-0.3c-1.7,4.4-3.1,8.8-5.2,13c-0.8,1.5-2.9,3.2-4.5,3.2c-1.5,0-3.8-1.6-4.6-3.1
        c-2-4-3.4-8.2-6.1-12.3c0,4.9,0,9.9,0,15.2c-3.1,0-5.5,0-8.8,0c0-3.9,0-7.8,0-11.7c0-6.8-0.1-13.7,0.1-20.5c0.1-1.6,1.3-4.2,2.3-4.4
        c2.7-0.4,5.9-1.5,7.4,2.7c2.5,7.1,5.3,14,8,21C125.8,236.4,126.4,237.2,127.3,239z"/>
    <path
        fill="white"
        fill-rule="evenodd"
        clip-rule="evenodd"
        d="M12.6,212.3c7.9-1.8,8.5-1.5,11.7,5.1c2.1,4.3,4.1,8.7,6.2,13.1c0.1,0.2,0.5,0.4,1.3,0.9c0-6.5,0-12.7,0-18.7
        c7.9-2.5,9.1-1.8,9.1,5.5c0,8.7,0.1,17.3-0.1,26c0,1.6-1.3,4.4-2.1,4.4c-2.7,0.2-6.1,1.8-7.8-2.2c-1.8-4.1-3.8-8.1-5.7-12.2
        c-0.7-1.6-1.6-3.1-3.5-4.3c0,6.1,0,12.1,0,18.6c-3.2,0-6,0-9,0C12.6,236.3,12.6,224.2,12.6,212.3z"/>
    <path
        fill="white"
        fill-rule="evenodd"
        clip-rule="evenodd"
        d="M214.3,223.9c-3.8,0.4-7.7,2-9.8-3.4c-0.5-1.3-3.7-2.5-5.4-2.3c-1.7,0.3-4.2,2.3-4.4,3.8
        c-0.7,4.7-0.7,9.5-0.5,14.3c0.2,3.5,2.2,6.1,6.1,5.8c4-0.2,5.7-2.8,6-6.8c-1.4-0.2-2.8,0-3.6-0.6c-1.1-0.8-2.3-2.1-2.5-3.3
        c-0.1-0.8,1.5-2.5,2.4-2.6c3.8-0.3,7.6-0.1,11.8-0.1c0,6.7,0,12.9,0,20.3c-2.7-0.7-5.1-1.3-8.5-2.2c-8.9,6.9-19.7,0.2-20.7-10.4
        c-0.5-5.5-0.2-11.3,1.1-16.7c1.5-6.6,8.4-9.9,15.9-8.8C210.1,212.2,214.1,216.3,214.3,223.9z"/>
    <path
        fill="white"
        fill-rule="evenodd"
        clip-rule="evenodd"
        d="M45,229.8c0.2-2.2,0.3-4.5,0.7-6.8c1.6-8.2,6.8-12.4,15.1-12.2c8.1,0.2,13.1,4.2,14.3,12.5
        c0.6,4.4,0.7,9,0.1,13.4c-1.2,8.6-6.8,13-15,12.8c-8-0.2-13.2-4.7-14.6-13C45.3,234.3,45.3,232.2,45,229.8z M53.8,229.8
        c0.4,2.9,0.2,5.8,1.3,8c1,1.9,3.4,4,5.3,4.1c1.9,0,5.3-2.2,5.5-3.7c0.7-5.3,0.6-10.9,0-16.2c-0.2-1.5-3.2-3.8-4.9-3.7
        c-2,0-4.7,1.8-5.6,3.6C54,224.1,54.2,227.2,53.8,229.8z"/>
    <path
        fill="white"
        fill-rule="evenodd"
        clip-rule="evenodd"
        d="M149.3,248.8c3.9-12.3,7.4-23.5,11.2-34.7c0.4-1.2,3-2.4,4.6-2.4c2,0,5.4,0.7,5.8,1.9
        c4.1,11.4,7.6,22.9,11.4,34.8c-4.7,0.3-9.1,2.2-10.6-4.5c-0.3-1.1-4.7-1.8-7.3-1.8c-1.6-0.1-4.5,1.1-4.7,2.1
        C158.6,250.9,154,248.4,149.3,248.8z M169.6,234.9c-1.2-4.3-2.2-8.1-3.3-12c-0.3,0-0.7,0-1,0.1c-1,3.8-2,7.7-3.2,11.9
        C164.8,234.9,166.9,234.9,169.6,234.9z"/>
    <path
        fill="white"
        fill-rule="evenodd"
        clip-rule="evenodd"
        d="M243.6,211.6c0,2.6,0,4.4,0,7c-3.1,0-6,0-9,0c-6.3,0-6.3,0.1-5.3,7.4c2.1,0,4.4,0,6.7,0c5.9,0,6,0.1,4.9,7
        c-3.8,0-7.6,0-11.8,0c0,3.1,0,5.5,0,8.5c4.8,0,9.5,0,14.6,0c0,2.7,0,4.7,0,7c-7.9,0-15.6,0-23.9,0c0-11.6-0.1-22.9,0.1-34.2
        c0-0.9,1.7-2.5,2.7-2.5C229.4,211.5,236.2,211.6,243.6,211.6z"/>
    <path
        fill="white"
        fill-rule="evenodd"
        clip-rule="evenodd"
        d="M102.8,211.6c0,7.7,0,15,0,22.2c0,2.7,0,5.3,0,8c0,7.8-0.1,7.9-8.9,6.3c0-11.3-0.5-22.7,0.2-34
        C94.4,209.1,99.3,212.5,102.8,211.6z"/>
    <path
        fill="white"
        fill-rule="evenodd"
        clip-rule="evenodd"
        d="M183.6,136.3c-40.1,0-79.3,0-119.5,0c1.3-1.8,2.1-3.1,3.1-4.2c8.9-9.2,17.9-18.3,26.8-27.6
        c2.7-2.8,4.7-2.9,7.4-0.1c2.3,2.5,5.1,4.7,8,7.3c8.3-9.4,16.2-18.4,24.1-27.4c1.2-1.4,2.5-2.7,3.6-4.1c2.4-3.2,4.3-2.7,6.5,0.4
        c7.8,11,15.8,21.9,23.6,32.8C172.6,120.8,177.8,128.2,183.6,136.3z"/>
    <path
        fill="white"
        fill-rule="evenodd"
        clip-rule="evenodd"
        d="M98.2,72c0,7.1-5.9,13-13,12.9c-6.9-0.1-12.6-5.9-12.7-12.8c0-7.1,6-13.1,13-12.9C92.5,59.3,98.2,65.1,98.2,72z
        "/>
</svg>
